<svg xmlns="http://www.w3.org/2000/svg" width="800" height="800" fill="none" viewBox="0 0 32 32">
  <path fill="#E76F00" d="M16.05 8.44C22.64 3.33 19.25 0 19.25 0c.51 5.29-5.44 6.54-7.03 10.17-1.09 2.48.74 4.65 3.83 7.39-.28-.61-.7-1.2-1.12-1.8-1.45-2.03-2.97-4.15 1.12-7.32Z"/>
  <path fill="#E76F00" d="M17.1 18.68s1.98-1.6.41-3.38c-5.32-6.03 5.82-8.76 5.82-8.76-6.8 3.27-5.78 5.22-4.07 7.58 1.83 2.53-2.16 4.56-2.16 4.56Z"/>
  <path fill="#5382A1" d="M22.94 23.45c6.1-3.12 3.28-6.12 1.3-5.72-.47.1-.69.19-.69.19s.18-.28.52-.4c3.9-1.35 6.9 3.97-1.26 6.08 0 0 .1-.08.13-.15ZM10.23 19.5c-3.82-.5 2.1-1.89 2.1-1.89s-2.3-.15-5.12 1.2c-3.34 1.58 8.26 2.3 14.26.75.63-.42 1.5-.78 1.5-.78s-2.47.43-4.91.63c-3 .25-6.21.3-7.83.09ZM11.69 22.48c-2.13-.22-.74-1.24-.74-1.24-5.51 1.8 3.07 3.84 10.77 1.63-.82-.29-1.34-.8-1.34-.8-3.76.7-5.94.69-8.7.4ZM12.61 25.7c-2.12-.24-.88-.95-.88-.95-5 1.37 3.04 4.21 9.41 1.53-1.04-.4-1.79-.86-1.79-.86-2.84.53-4.16.57-6.74.28Z"/>
  <path fill="#5382A1" d="M25.94 27.34s.92.74-1.01 1.32c-3.68 1.1-15.3 1.43-18.54.04-1.16-.5 1.02-1.18 1.7-1.33.72-.15 1.12-.12 1.12-.12-1.29-.9-8.34 1.76-3.58 2.52 12.99 2.07 23.68-.94 20.3-2.43Z"/>
  <path fill="#5382A1" d="M28 28.97c-.21 2.72-9.21 3.3-15.07 2.93-3.83-.24-4.6-.84-4.6-.85 3.66.59 9.82.7 14.83-.23C27.59 30 28 28.97 28 28.97Z"/>
</svg>